<?xml version="1.0" encoding="UTF-8"?><svg xmlns="http://www.w3.org/2000/svg" width="1200" height="600">
<rect width="1200" height="600" style="fill:#e00034" />
<path style="fill:#fff" d="m 599.73704,371.49897 c -39.50019,0 -71.52534,-32.03054 -71.52534,-71.51928 0,-39.53376 32.02765,-71.54679 71.52534,-71.54679 22.2051,0 42.0527,10.14846 55.17276,26.01246 -15.42257,-25.50992 -43.41771,-42.56404 -75.40286,-42.56404 -48.63273,0 -88.06541,39.43375 -88.06541,88.09837 0,48.62711 39.43018,88.04585 88.06541,88.04585 31.98515,0 59.98029,-17.05162 75.40286,-42.55654 -13.11756,15.88901 -32.96766,26.02997 -55.17276,26.02997 z" id="crescent"/>
<polygon style="fill:#ffffff" points="330.043,334.138 333.439,341.79 341.254,338.783 338.245,346.596 345.896,349.995 338.243,353.391 341.25,361.205 333.438,358.195 330.039,365.847 326.643,358.194 318.828,361.201 321.838,353.388 314.187,349.989 321.839,346.594 318.832,338.78 326.645,341.789 " transform="matrix(2.5000118,0,0,2.5002373,-150.0065,-575.11087)" id="star"/>
</svg>
